# xmcd
#
# Track frame offsets:
#	150
#	14055
#	27115
#	40950
#	62070
#	81982
#	97511
#	110921
#	126604
#	146000
#	159488
#	169875
#	185211
#	202260
#
# Disc length: 2986 seconds
#
# Revision: 0
# Processed by: cddbd v1.5.2PL0 Copyright (c) Steve Scherf et al.
# Submitted via: audiograbber 1.83.01
#
DISCID=d20ba80e
DTITLE=Chitãozinho e Xororó  - De Coração para Coração
DYEAR=2008
DGENRE=Country
TTITLE0=Cheiro de Relva
TTITLE1=Fio de Cabelo
TTITLE2=Nascemos para Cantar
TTITLE3=Sinônimos
TTITLE4=Pagina Virada
TTITLE5=Rastros na Areia
TTITLE6=Coração de Cowboy
TTITLE7=Gente Humilde
TTITLE8=É Assim que Te Amo
TTITLE9=Saudade de Minha Terra
TTITLE10=60 Dias Apaixonado
TTITLE11=Bailão de Peão
TTITLE12=Obras de Poetas
TTITLE13=Um Homem Quando Ama
EXTD=
EXTT0=
EXTT1=
EXTT2=
EXTT3=
EXTT4=
EXTT5=
EXTT6=
EXTT7=
EXTT8=
EXTT9=
EXTT10=
EXTT11=
EXTT12=
EXTT13=
PLAYORDER=
